

Release info:

General
Format                                   : Matroska
Format version                           : Version 2
File size                                : 693 MiB
Duration                                 : 1h 24mn
Overall bit rate                         : 1 143 Kbps


Video
ID                                       : 1
Format                                   : MPEG-4 Visual
Format profile                           : Advanced Simple@L5
Format settings, BVOP                    : Yes
Format settings, QPel                    : No
Format settings, GMC                     : No warppoints
Format settings, Matrix                  : Default (H.263)
Codec ID                                 : V_MS/VFW/FOURCC / XVID
Codec ID/Hint                            : XviD
Duration                                 : 1h 24mn
Bit rate                                 : 993 Kbps
Width                                    : 640 pixels
Height                                   : 352 pixels
Display aspect ratio                     : 16:9
Frame rate mode                          : Constant
Frame rate                               : 25.000 fps
Color space                              : YUV
Chroma subsampling                       : 4:2:0
Bit depth                                : 8 bits
Scan type                                : Progressive
Compression mode                         : Lossy
Bits/(Pixel*Frame)                       : 0.176
Stream size                              : 602 MiB (87%)
Language                                 : English
Default                                  : Yes
Forced                                   : No

Audio
ID                                       : 2
Format                                   : MPEG Audio
Format version                           : Version 1
Format profile                           : Layer 3
Mode                                     : Joint stereo
Mode extension                           : MS Stereo
Muxing mode                              : Header stripping
Codec ID                                 : A_MPEG/L3
Codec ID/Hint                            : MP3
Duration                                 : 1h 24mn
Bit rate mode                            : Constant
Bit rate                                 : 128 Kbps
Channel(s)                               : 2 channels
Sampling rate                            : 48.0 KHz
Compression mode                         : Lossy
Stream size                              : 77.6 MiB (11%)
Language                                 : English
Default                                  : Yes
Forced                                   : No

Source:
credit to original movie ripper PSiG (Thanks]

IMDB Info:

A bunch of college kids accidentally unleash an evil curse that causes people to kill themselves and turn into Zombie Demons, aka ZEMONS!

Director: April Mullen
Writer: Tim Doiron
Stars: Devon Bostick, Christopher Lloyd and Martha MacIsaac

Genres: Adventure | Comedy | Horror
 
http://www.imdb.com/title/tt1989485/

Screen Shot:
 
http://hostpicturefree.com/images/vlcsnaziz.png 
http://hostpicturefree.com/images/vlcsnarvr.png 
http://hostpicturefree.com/images/vlcsnajsj.png 
http://hostpicturefree.com/images/vlcsnajjj.png 
http://hostpicturefree.com/images/vlcsnaqwq.png